# xmcd
#
# Track frame offsets:
#       182
#       16132
#       34582
#       46307
#       60507
#       72820
#       86107
#       97795
#       112532
#       128482
#       139507
#       155207
#       164532
#       179245
#
# Disc length: 2633 seconds
#
# Revision: 1
# Processed by: cddbd v1.4PL0 Copyright (c) Steve Scherf et al.
# Submitted via: MusiCat 1.1
#
DISCID=ad0a470e
DTITLE=Vari - Cocktail italiano vol. 3
DYEAR=1900
DGENRE=
TTITLE0=Il primo giorno di primavera-Dik Dik
TTITLE1=Tu mi rubi l'anima-Collage
TTITLE2=Fiori e colori-Le Orme
TTITLE3=Il nostro amore segreto-Fred Bongusto
TTITLE4=Bada bambina-Little Tony
TTITLE5=Si e' spento il sole-Adriano Celentano
TTITLE6=Zingara-Iva Zanicchi
TTITLE7=In un fiore-Wilma Goich
TTITLE8=Io per lei-I Camaleonti
TTITLE9=Il castello di Samuele-I Giganti
TTITLE10=Tornerai tornero'-Homo Sapiens
TTITLE11=Il tuo bacio e' come un rock-Adriano Celentano
TTITLE12=La prima cosa bella-Nicola di Bari
TTITLE13=Mi fai compagnia-Fabio Concato
EXTD=0\n\n\n
EXTT0=
EXTT1=
EXTT2=
EXTT3=
EXTT4=
EXTT5=
EXTT6=
EXTT7=
EXTT8=
EXTT9=
EXTT10=
EXTT11=
EXTT12=
EXTT13=
PLAYORDER=
